HIERARCHY
ROOT Hips
{
	OFFSET 0.000000 0.000000 0.000000
	CHANNELS 6 Xposition Yposition Zposition Zrotation Yrotation Xrotation 
	JOINT LeftUpLeg_virtual
	{
		OFFSET 0.000000 0.000000 0.000000
		CHANNELS 3 Zrotation Yrotation Xrotation
		JOINT LeftUpLeg
		{
			OFFSET 10.205400 -3.823500 0.155100
			CHANNELS 3 Zrotation Yrotation Xrotation
			JOINT LeftLeg
			{
				OFFSET 0.708757 -12.982077 0.567790
				CHANNELS 3 Zrotation Yrotation Xrotation
				JOINT LeftFoot
				{
					OFFSET -0.708756 -10.717838 -2.184338
					CHANNELS 3 Zrotation Yrotation Xrotation
					JOINT LeftToeBase
					{
						OFFSET 0.108149 -7.191104 7.560241
						CHANNELS 3 Zrotation Yrotation Xrotation
						End Site
						{
							OFFSET 0.000000 0.000000 0.000000
						}
					}
				}
			}
		}
	}
	JOINT RightUpLeg_virtual
	{
		OFFSET 0.000000 0.000000 0.000000
		CHANNELS 3 Zrotation Yrotation Xrotation
		JOINT RightUpLeg
		{
			OFFSET -10.205400 -3.823500 0.005500
			CHANNELS 3 Zrotation Yrotation Xrotation
			JOINT RightLeg
			{
				OFFSET -0.708756 -12.982134 0.610632
				CHANNELS 3 Zrotation Yrotation Xrotation
				JOINT RightFoot
				{
					OFFSET 0.708754 -10.717769 -1.945823
					CHANNELS 3 Zrotation Yrotation Xrotation
					JOINT RightToeBase
					{
						OFFSET -0.108140 -7.191069 7.372968
						CHANNELS 3 Zrotation Yrotation Xrotation
						End Site
						{
							OFFSET 0.000000 0.000000 0.000000
						}
					}
				}
			}
		}
	}
	JOINT Spine_virtual
	{
		OFFSET 0.000000 0.000000 0.000000
		CHANNELS 3 Zrotation Yrotation Xrotation
		JOINT Spine
		{
			OFFSET 0.000000 6.876099 0.125700
			CHANNELS 3 Zrotation Yrotation Xrotation
			JOINT Spine1
			{
				OFFSET 0.000000 8.022060 0.146608
				CHANNELS 3 Zrotation Yrotation Xrotation
				JOINT Spine2
				{
					OFFSET 0.000000 9.168068 0.167552
					CHANNELS 3 Zrotation Yrotation Xrotation
					JOINT Neck_virtual
					{
						OFFSET 0.000000 0.000000 0.000000
						CHANNELS 3 Zrotation Yrotation Xrotation
						JOINT Neck
						{
							OFFSET 0.000000 10.314075 0.188496
							CHANNELS 3 Zrotation Yrotation Xrotation
							JOINT Head
							{
								OFFSET 0.000000 7.643700 -2.377400
								CHANNELS 3 Zrotation Yrotation Xrotation
								End Site
								{
									OFFSET 0.000000 0.000000 0.000000
								}
							}
						}
					}
					JOINT LeftShoulder_virtual
					{
						OFFSET 0.000000 0.000000 0.000000
						CHANNELS 3 Zrotation Yrotation Xrotation
						JOINT LeftShoulder
						{
							OFFSET 4.392200 8.824978 0.174984
							CHANNELS 3 Zrotation Yrotation Xrotation
							JOINT LeftArm
							{
								OFFSET 8.771219 -2.981674 -0.026999
								CHANNELS 3 Zrotation Yrotation Xrotation
								JOINT LeftForeArm
								{
									OFFSET 8.512804 0.000000 -0.000000
									CHANNELS 3 Zrotation Yrotation Xrotation
									JOINT LeftHand
									{
										OFFSET 18.484802 0.000000 -0.000000
										CHANNELS 3 Zrotation Yrotation Xrotation
										End Site
										{
											OFFSET 0.000000 0.000000 0.000000
										}
									}
								}
							}
						}
					}
					JOINT RightShoulder_virtual
					{
						OFFSET 0.000000 0.000000 0.000000
						CHANNELS 3 Zrotation Yrotation Xrotation
						JOINT RightShoulder
						{
							OFFSET -4.392200 8.824993 0.141379
							CHANNELS 3 Zrotation Yrotation Xrotation
							JOINT RightArm
							{
								OFFSET -8.771282 -2.981682 -0.094208
								CHANNELS 3 Zrotation Yrotation Xrotation
								JOINT RightForeArm
								{
									OFFSET -8.494598 0.000000 0.000000
									CHANNELS 3 Zrotation Yrotation Xrotation
									JOINT RightHand
									{
										OFFSET -18.483803 0.000000 0.000001
										CHANNELS 3 Zrotation Yrotation Xrotation
										End Site
										{
											OFFSET 0.000000 0.000000 0.000000
										}
									}
								}
							}
						}
					}
				}
			}
		}
	}
}
MOTION
Frames: 10
Frame Time: 0.033333
10.132339 34.387260 -3.559830 179.957521 3.811889 179.715241 -0.023000 -2.578413 7.691714 -6.359086 -4.691515 -27.629447 9.852199 6.898223 17.839795 -2.397288 5.765800 7.356512 0.000000 0.000000 0.000000 5.212088 -2.211015 5.837632 0.249721 10.327821 -24.490903 -6.403115 3.512014 19.008242 7.399973 4.948300 0.174365 0.000000 0.000000 0.000000 2.164043 0.359689 -4.377467 -1.096392 -2.922108 -12.322096 -1.416613 -1.730978 10.006912 0.001277 0.020264 -0.046171 -1.905613 0.733874 12.471741 -1.021027 -0.656221 22.322499 0.000000 0.000000 0.000000 -0.300574 1.444956 9.343084 -17.660477 -10.909813 1.701372 -50.055963 20.098448 10.779436 -0.595802 -35.780007 2.621623 0.000000 0.000000 0.000000 -4.351947 2.455967 8.853616 26.468667 4.865047 5.282630 46.775649 -17.842483 11.221352 -6.687204 31.331977 -4.481467 0.000000 0.000000 0.000000 
10.113723 34.388767 -3.537790 179.836272 3.908972 179.569102 -0.079150 -2.397846 7.707138 -6.400785 -4.839898 -27.553138 9.917042 6.817296 17.746892 -2.470440 5.770576 7.871220 0.000000 0.000000 0.000000 5.444343 -2.119703 5.679892 -0.319239 10.733400 -24.818647 -6.664855 4.287540 18.745850 7.446795 4.947653 0.166168 0.000000 0.000000 0.000000 2.079818 0.297512 -4.286727 -1.124350 -2.902322 -12.302200 -1.434273 -1.721051 9.961862 -0.001239 0.054751 -0.066952 -1.906140 0.718686 12.514903 -1.030936 -0.622900 22.443021 0.000000 0.000000 0.000000 -0.277801 1.517577 9.240871 -17.758446 -10.843668 1.717585 -50.136129 20.002118 10.730236 -0.547142 -35.843419 2.587824 0.000000 0.000000 0.000000 -4.345164 2.594753 8.831055 26.380287 4.792376 5.277606 46.840215 -17.916773 11.220681 -6.646852 31.256875 -4.428883 0.000000 0.000000 0.000000 
10.089880 34.400570 -3.489535 179.847432 3.964025 179.559185 -0.124591 -2.303849 7.638513 -6.411538 -4.804745 -27.503334 9.945647 7.013076 17.619503 -2.564201 5.779229 8.067263 0.000000 0.000000 0.000000 5.516131 -2.036522 5.673070 -0.474811 10.774532 -24.923437 -6.647943 4.394854 18.776100 7.376468 4.962301 0.236749 0.000000 0.000000 0.000000 2.070192 0.339050 -4.160182 -1.091794 -2.902634 -12.288083 -1.432313 -1.726046 9.748252 0.043524 0.067963 -0.045045 -1.926501 0.714300 12.410029 -1.044357 -0.521313 22.221481 0.000000 0.000000 0.000000 -0.329863 1.457140 9.254110 -17.914920 -10.859056 1.728218 -50.211354 19.885623 10.683128 -0.500215 -35.803493 2.556256 0.000000 0.000000 0.000000 -4.401892 2.478365 8.854153 26.289842 4.779208 5.250724 46.920285 -17.977162 11.124103 -6.663410 31.225607 -4.354526 0.000000 0.000000 0.000000 
10.072711 34.417545 -3.419881 179.895968 4.125514 179.627992 -0.075421 -2.207260 7.569171 -6.363672 -4.757839 -27.544186 9.898987 7.104265 17.399499 -2.599955 5.814812 8.359363 0.000000 0.000000 0.000000 5.676374 -1.916165 5.629148 -0.790179 10.908301 -25.090550 -6.570867 4.115189 18.868799 7.354564 5.070373 0.275365 0.000000 0.000000 0.000000 2.126366 0.487933 -4.120003 -1.034555 -2.922712 -12.310349 -1.471330 -1.745165 9.855239 -0.008326 0.079939 -0.072918 -1.918946 0.684618 12.187182 -1.161089 -0.463624 22.081605 0.000000 0.000000 0.000000 -0.276333 1.421116 9.082767 -18.057589 -10.877342 1.724306 -50.254715 19.751620 10.703098 -0.484527 -35.692393 2.569494 0.000000 0.000000 0.000000 -4.354780 2.416649 8.648029 26.146126 4.707304 5.189293 47.104161 -18.059360 10.783743 -6.649416 31.137716 -4.427831 0.000000 0.000000 0.000000 
10.060305 34.432545 -3.329554 179.946552 4.344329 179.563378 -0.027431 -2.024502 7.585013 -6.315113 -4.786586 -27.521530 9.885767 7.314339 17.078938 -2.691157 5.885508 8.827127 0.000000 0.000000 0.000000 5.851765 -1.772712 5.623399 -1.131791 10.994311 -25.231943 -6.415167 3.738087 19.016172 7.356915 5.198642 0.285565 0.000000 0.000000 0.000000 2.165382 0.616414 -3.858361 -0.941051 -2.945044 -12.221393 -1.450971 -1.774758 9.756019 0.007854 0.085995 -0.062697 -1.948472 0.653956 12.070974 -1.242135 -0.370953 21.941213 0.000000 0.000000 0.000000 -0.292953 1.448209 8.961317 -18.170381 -10.918152 1.722351 -50.132946 19.605438 10.806164 -0.433720 -35.629033 2.580057 0.000000 0.000000 0.000000 -4.382026 2.388576 8.533054 26.062798 4.629562 5.135422 47.369073 -18.126936 10.304873 -6.654797 31.053954 -4.434053 0.000000 0.000000 0.000000 
10.042199 34.445011 -3.236916 179.932960 4.380065 179.536344 -0.109896 -1.892204 7.441502 -6.234118 -4.758368 -27.551042 9.905926 7.568561 16.986643 -2.927817 5.896883 9.039220 0.000000 0.000000 0.000000 5.921411 -1.674468 5.624195 -1.501557 11.088351 -25.396392 -6.183975 3.240661 19.204276 7.257119 5.206730 0.235875 0.000000 0.000000 0.000000 2.154057 0.708180 -3.547884 -0.904026 -2.994472 -12.145934 -1.452704 -1.796212 9.569159 -0.001620 0.080255 -0.059422 -1.930013 0.585201 11.946034 -1.321977 -0.279508 21.617795 0.000000 0.000000 0.000000 -0.273765 1.379215 8.970059 -18.202355 -10.950725 1.697298 -49.931760 19.524393 10.988276 -0.422722 -35.571912 2.624018 0.000000 0.000000 0.000000 -4.359568 2.283810 8.554102 26.006458 4.590797 5.170005 47.680553 -18.107945 9.730046 -6.738227 30.960158 -4.538989 0.000000 0.000000 0.000000 
10.027801 34.456272 -3.148431 179.847705 4.425838 179.530470 -0.239019 -1.821121 7.373188 -6.186339 -4.670442 -27.618703 9.915305 7.876274 16.787678 -3.143249 5.944642 9.169294 0.000000 0.000000 0.000000 5.937593 -1.552739 5.608091 -1.738444 10.811944 -25.594373 -5.907825 3.150464 19.400906 7.166104 5.240314 0.229458 0.000000 0.000000 0.000000 2.104081 0.793618 -3.296317 -0.902405 -3.091869 -12.070701 -1.495380 -1.876404 9.510252 0.079137 0.047676 -0.064684 -2.003949 0.409123 11.815104 -1.394362 -0.218264 21.367676 0.000000 0.000000 0.000000 -0.314446 1.334050 8.851266 -18.240022 -10.926014 1.745969 -49.609546 19.321512 11.392217 -0.343292 -35.534776 2.597886 0.000000 0.000000 0.000000 -4.377537 2.397975 8.391324 25.935350 4.352533 5.039691 48.002610 -18.247924 8.977257 -6.699889 30.853375 -4.568217 0.000000 0.000000 0.000000 
10.017469 34.465374 -3.087531 179.914368 4.469645 179.514624 -0.203616 -1.790439 7.357823 -6.111634 -4.677494 -27.609370 9.915975 8.165552 16.607661 -3.252749 5.963925 9.349757 0.000000 0.000000 0.000000 6.098598 -1.480551 5.600307 -2.000322 10.776855 -25.802981 -5.667663 3.001513 19.662154 7.041456 5.274944 0.195269 0.000000 0.000000 0.000000 2.116294 0.733319 -3.027536 -0.856240 -3.113472 -12.034103 -1.432223 -1.897123 9.411818 0.027399 0.093148 -0.051687 -1.973749 0.530365 11.739872 -1.405075 -0.175733 21.191172 0.000000 0.000000 0.000000 -0.303718 1.310273 8.745927 -18.215240 -10.911458 1.700265 -49.333268 19.151142 11.724660 -0.286659 -35.459781 2.606209 0.000000 0.000000 0.000000 -4.348863 2.380361 8.327992 25.924934 4.307214 4.986675 48.260006 -18.336053 8.332769 -6.695336 30.678648 -4.617581 0.000000 0.000000 0.000000 
10.012768 34.474705 -3.073582 179.847405 4.495486 179.514338 -0.303160 -1.745098 7.381400 -6.005705 -4.655714 -27.663455 10.012634 8.495519 16.590531 -3.459879 5.837915 9.449357 0.000000 0.000000 0.000000 6.112192 -1.383066 5.602753 -2.149246 10.595240 -26.002243 -5.419335 2.937494 20.017669 6.918329 5.313983 0.108834 0.000000 0.000000 0.000000 2.052417 0.896687 -2.896319 -0.851618 -3.165676 -12.038835 -1.399628 -1.945229 9.453756 0.015619 0.059160 -0.154739 -1.904089 0.480969 11.671514 -1.398405 -0.167095 21.016101 0.000000 0.000000 0.000000 -0.267964 1.255368 8.733158 -18.294785 -10.919049 1.702011 -49.119261 18.991175 12.063052 -0.204888 -35.320028 2.546280 0.000000 0.000000 0.000000 -4.322163 2.226133 8.275177 25.829533 4.189832 4.879182 48.500811 -18.485275 7.909185 -6.665407 30.476106 -4.605153 0.000000 0.000000 0.000000 
10.036983 34.471996 -3.113649 179.796329 4.678405 179.485063 -0.334956 -1.638221 7.491245 -5.807415 -4.818138 -27.707748 9.945284 8.803777 16.779111 -3.555146 5.787498 9.281443 0.000000 0.000000 0.000000 6.096725 -1.288714 5.642418 -1.903210 10.045839 -26.117810 -5.323564 3.569303 20.401329 6.902164 5.409699 -0.073914 0.000000 0.000000 0.000000 1.978549 0.892937 -2.787793 -0.845829 -3.182686 -12.034895 -1.309212 -1.763746 9.313339 0.017938 0.084538 -0.115676 -1.775862 0.394614 11.637279 -1.290719 -0.125559 21.000439 0.000000 0.000000 0.000000 -0.106649 1.262172 8.737266 -18.272417 -10.888602 1.528626 -49.238933 19.005609 12.336185 -0.283616 -35.148884 2.656577 0.000000 0.000000 0.000000 -4.198145 2.224730 8.142628 25.722305 3.967548 4.841345 48.681873 -18.672788 7.638874 -6.609097 30.210944 -4.707564 0.000000 0.000000 0.000000 
